<?xml version="1.0" encoding="UTF-8"?>
<svg width="745px" height="231px" viewBox="0 0 745 231" version="1.1" xmlns="http://www.w3.org/2000/svg" xmlns:xlink="http://www.w3.org/1999/xlink">
    <!-- Generator: Sketch 64 (93537) - https://sketch.com -->
    <title>Group</title>
    <desc>Created with Sketch.</desc>
    <g id="Page-1" stroke="none" stroke-width="1" fill="none" fill-rule="evenodd">
        <g id="Desktop" transform="translate(-587.000000, -187.000000)">
            <g id="Group" transform="translate(587.000000, 187.000000)">
                <g id="twitter-palmtree" transform="translate(544.000000, 0.000000)" fill-rule="nonzero">
                    <path d="M127.543191,131.243521 C127.195758,126.03129 126.661742,120.987613 125.954009,116.170837 C125.098296,110.401078 124.030263,104.968429 122.833552,99.8793721 C121.733349,95.1922535 120.543072,90.8227958 119.307756,86.8034133 C117.454784,80.7678568 115.55034,75.5361767 113.826046,71.2445135 C110.435363,62.823259 107.758847,58 107.758847,58 L84.5130466,61.0210197 C84.5130466,61.0210197 87.1959967,66.6611209 90.0977005,77.7144227 C91.2751102,82.2005721 92.4846896,87.5943241 93.5720243,93.8891957 C94.1253425,97.0658044 94.6400572,100.449865 95.1033004,104.086758 C95.7466937,109.149883 96.2807101,114.66681 96.6603122,120.611606 C96.8790659,123.969735 97.0334803,127.470488 97.1364232,131.107381 C97.1750268,132.429887 97.2329322,133.707014 97.252234,135.068417 C97.3165733,139.321183 97.0206124,143.645261 96.4930299,147.962855 C96.0169189,151.85258 95.3220541,155.722857 94.4920767,159.560719 C93.3017991,165.058197 91.8348624,170.458432 90.1813416,175.605834 C88.8430835,179.774323 87.4083165,183.78074 85.9671155,187.534324 C83.7538425,193.310566 81.5277017,198.503349 79.6039557,202.827426 C76.3741213,210.081763 74,214.905022 74,215.909868 C74,219.086476 76.2518766,225.037756 91.9957107,229.005275 C116.618372,235.202904 118.992494,224.97941 118.992494,224.97941 C118.992494,224.97941 120.555939,220.195048 122.376743,210.768948 C123.277493,206.114244 124.236149,200.363934 125.10473,193.407809 C125.625879,189.245803 126.108424,184.668893 126.533063,179.690045 C126.970571,174.503745 127.337305,168.883093 127.594662,162.802156 C127.78768,158.199315 127.897057,153.27233 127.948529,148.157342 C127.961396,146.562555 128,145.01963 128,143.379463 C128,139.230423 127.806982,135.204558 127.543191,131.243521 L127.543191,131.243521 Z" id="Path" fill="#C1694F"></path>
                    <path d="M103.614014,193.470839 C94.4733413,191.88965 88.6423348,189.239215 85.4434251,187.256249 C83.2022337,193.03018 80.9480122,198.220885 79,202.543233 C84.9678234,205.776893 92.5448744,208.343085 100.766919,209.762266 C105.516421,210.585262 110.226832,211 114.650578,211 C117.347826,211 119.882197,210.786151 122.312325,210.481577 C123.224438,205.828735 124.195187,200.080726 125.074724,193.127384 C122.182024,194.144788 114.989363,195.440844 103.614014,193.470839 L103.614014,193.470839 Z M110.520011,163.188484 C103.399016,162.488613 97.9198245,160.933346 94.0694057,159.287354 C92.8641138,164.782633 91.378673,170.180707 89.7042946,175.326051 C95.3333333,177.438622 101.959181,178.961489 108.891238,179.641918 C111.686212,179.91409 114.461641,180.056656 117.165404,180.056656 C120.435979,180.056656 123.537163,179.803925 126.514559,179.415108 C126.957585,174.230883 127.328946,168.612479 127.589549,162.533975 C123.498072,163.408813 117.758277,163.894834 110.520011,163.188484 L110.520011,163.188484 Z M112.533174,149.366043 C117.888579,149.366043 123.152772,148.82818 127.947879,147.888539 C127.960909,146.29439 128,144.752083 128,143.112572 C128,138.958711 127.811062,134.934457 127.537429,130.975005 C124.090945,131.869283 119.165536,132.737641 112.213934,132.828365 C105.151576,132.795964 100.180561,131.823921 96.7471081,130.845399 C96.7861986,132.167376 96.8448345,133.443992 96.8643797,134.804851 C96.9295306,139.055916 96.6298365,143.378263 96.095599,147.694131 C101.066613,148.737456 106.55232,149.333642 112.129238,149.359563 L112.533174,149.366043 L112.533174,149.366043 Z M110.910916,119.705795 C116.285866,118.934642 121.269911,117.547862 125.921686,115.914831 C125.055179,110.14738 123.973674,104.716904 122.761867,99.6298834 C119.530382,100.951861 114.950273,102.422885 108.552453,103.336604 C102.62372,104.192001 98.095732,104.140159 94.6818242,103.835586 C95.3333333,108.896686 95.8740859,114.411405 96.2584763,120.353823 C97.2487701,120.392705 98.1478527,120.54186 99.1642069,120.54186 C102.99508,120.548232 106.982316,120.263099 110.910916,119.705795 Z M119.191597,86.5526754 C117.315251,80.5195334 115.386784,75.2899463 113.640739,71 C110.754554,72.4386225 107.099588,73.9550083 102.324026,75.2705055 C97.1445287,76.7026477 92.9618402,77.2729124 89.6130834,77.4673209 C90.805345,81.9516756 92.0301822,87.3432698 93.1312325,93.635623 C97.5680096,93.1949639 102.141604,92.4756527 106.773833,91.1990372 C111.19758,89.9807443 115.308603,88.3477134 119.191597,86.5526754 Z" id="Shape" fill="#D99E82"></path>
                    <path d="M196.680119,26.4934399 C196.39327,26.0944421 167.47374,-12.7130016 129.961798,4.31962664 C113.135533,11.9529128 102.274411,24.4265004 98.3367657,40.5237731 C91.0025746,30.2675668 79.8546042,23.7462418 65.1340678,21.1102398 C24.7210452,13.8759515 0.430204413,58.8384271 0.188991018,59.2962935 C-0.163050153,59.9634701 -0.0131066914,60.7941705 0.554070751,61.2912826 C1.12124819,61.7883946 1.96875472,61.8210993 2.58156713,61.3893968 C2.76410699,61.2585778 21.1354407,48.3532877 51.7565033,53.8215201 C83.0555711,59.4074896 104.999471,64.9018858 105.221126,64.9542134 C105.351512,64.9869181 105.488417,65 105.618802,65 C106.068633,65 106.505425,64.8168535 106.81835,64.4767242 C107.026967,64.247791 127.810435,41.8450446 146.931486,33.1652067 C175.218646,20.338408 194.509198,28.8547221 194.691738,28.9397544 C195.369743,29.240638 196.171615,29.0574915 196.634484,28.4818881 C197.103872,27.9128256 197.12343,27.0886662 196.680119,26.4934399 Z" id="Path" fill="#3E721D"></path>
                    <path d="M165.386663,47.6441798 C136.744677,32.5901189 114.351261,39.9296202 100.397639,49.0668144 C83.6545945,45.9176187 52.7108466,46.0986813 26.5071685,79.5047287 C-5.89306178,120.806398 22.4888377,172.247573 22.7814346,172.764894 C23.2170789,173.53441 24.0363502,174 24.9076388,174 C25.0051711,174 25.1092055,173.993533 25.2067378,173.9806 C26.188563,173.857737 27.0013322,173.159352 27.2614183,172.208774 C27.3589506,171.859582 37.1902065,136.513578 62.0479389,106.780514 C75.533405,90.6400779 91.6327367,75.7024144 103.063522,65.7827712 C114.520317,67.7097944 131.19834,71.9065665 147.577264,81.0049616 C179.814941,98.9366243 194.613842,129.284007 194.763391,129.587934 C195.205538,130.519113 196.135346,131.049368 197.227708,130.958836 C198.255048,130.842439 199.10683,130.098789 199.340907,129.102945 C199.470951,128.533891 212.137145,72.19756 165.386663,47.6441798 Z" id="Path" fill="#5C913B"></path>
                </g>
                <g id="twitter-bug" fill-rule="nonzero">
                    <path d="M44.1308296,25.7142857 C50.5111652,19.2857143 45.7259135,0 34.9559069,0 C24.1859004,0 24.9898227,12.8571429 31.3701583,12.8571429 C37.7504939,12.8571429 37.7504939,25.7142857 37.7504939,32.1428571 C37.7504939,38.5714286 44.1308296,25.7142857 44.1308296,25.7142857 Z M17.4418857,36.7714286 C23.8222213,30.3428571 19.0369696,11.0571429 8.26696305,11.0571429 C-2.50304348,11.0571429 -1.69912119,23.9142857 4.68121443,23.9142857 C11.0615501,23.9142857 11.0615501,36.7714286 11.0615501,43.2 C11.0615501,49.6285714 17.4418857,36.7714286 17.4418857,36.7714286 Z" id="Shape" fill="#AA8DD8"></path>
                    <path d="M186.888442,210.801552 C188.101525,215.992488 194.763856,225.449244 199.930692,224.235027 C205.103947,223.014386 206.843341,211.572483 205.630258,206.394395 C204.417175,201.203459 199.224665,197.99767 194.05141,199.218311 C188.884574,200.438952 185.66894,205.623464 186.888442,210.801552 L186.888442,210.801552 Z M152.010628,214.971005 C152.029947,220.303278 156.381643,231.019221 161.696103,230.999974 C167.010563,230.97425 171.285238,220.226185 171.266048,214.900336 C171.246727,209.574486 166.920705,205.28297 161.606245,205.29579 C156.291785,205.321516 151.991437,209.645155 152.010628,214.971005 L152.010628,214.971005 Z M118.179147,199.256858 C116.086738,204.16512 115.83642,215.722662 120.720845,217.82345 C125.618107,219.904964 133.795187,211.739518 135.887596,206.837681 C137.973585,201.942268 135.70788,196.282348 130.823454,194.181561 C125.93261,192.093623 120.277973,194.355021 118.179147,199.256858 L118.179147,199.256858 Z M85.8880245,128.331192 C80.6762591,129.436193 71.0742876,135.867044 72.1590023,141.070829 C73.2693907,146.274614 84.642849,148.291884 89.8546143,147.193307 C95.0599612,146.09473 98.384708,140.980887 97.2999933,135.777102 C96.1960233,130.573316 91.1062082,127.232615 85.8880245,128.331192 Z M72.8136822,96.2090602 C67.6019169,97.3140615 57.9999453,103.744912 59.08466,108.948698 C60.1950484,114.152483 71.5685067,116.169753 76.780272,115.071176 C81.9856189,113.972599 85.3103657,108.858756 84.225651,103.65497 C83.121681,98.451185 78.0254475,95.1104833 72.8136822,96.2090602 L72.8136822,96.2090602 Z" id="Shape" fill="#744EAA"></path>
                    <path d="M172.101167,218 C190.251636,218 203.683367,212.370082 205.863219,211.407154 C220.423344,204.92344 226.975721,187.853938 220.506691,173.28163 C214.101775,158.837712 197.32333,152.257705 182.859375,158.426862 C182.006668,158.747838 171.363864,162.59313 161.426306,157.964657 C149.558939,152.437451 142.22438,136.722468 138.166009,124.525382 C137.242778,121.764989 135.697648,116.346914 133.767839,109.657776 C121.804301,68.1170672 115.610958,56.4720595 108.23152,46.6180976 C84.4390831,14.8350584 46.7340647,12.6203243 28.1989163,16.3436454 C12.5745106,19.4699512 2.43820152,34.6906311 5.56692944,50.3349992 C8.69565737,65.9857869 23.9033267,76.1414661 39.521321,72.9959018 C40.5599561,72.8289943 53.6518873,71.0315289 61.4737072,80.5003196 C65.5961909,88.7622408 74.8092688,113.419614 78.3354991,125.655217 C80.5538185,133.352221 82.3682242,139.591993 83.4260933,142.776075 C94.7933773,176.908658 113.341348,199.864858 138.582746,211.009144 C150.456525,216.26031 162.009737,218 172.101167,218 Z" id="Path" fill="#9266CC"></path>
                    <circle id="Oval" fill="#FFFFFF" cx="39.5" cy="32.5" r="6.5"></circle>
                    <path d="M195.006299,212 C194.435198,212 193.851262,211.922789 193.280161,211.768368 C189.866386,210.816103 187.864323,207.270846 188.81402,203.847839 C193.67159,186.333883 183.87303,174.623597 183.776777,174.507781 C181.47312,171.811841 181.774713,167.745412 184.463382,165.435526 C187.145633,163.125639 191.207512,163.428048 193.511168,166.123988 C194.10152,166.812449 207.846456,183.239022 201.179328,207.283714 C200.39647,210.134075 197.810471,212 195.006299,212 L195.006299,212 Z M148.811253,208.377532 C147.23912,208.377532 145.666987,207.804886 144.422114,206.640292 C141.836115,204.208156 141.701361,200.135292 144.120521,197.5423 C153.649573,187.331188 153.444233,170.563602 153.437816,170.389878 C153.335146,166.838186 156.126485,163.878444 159.675014,163.775214 C163.152957,163.743325 166.175303,166.471436 166.271556,170.029561 C166.297223,170.923918 166.739987,192.143987 153.495568,206.344318 C152.231445,207.695505 150.51814,208.377532 148.811253,208.377532 L148.811253,208.377532 Z M93.9983505,152.425526 C90.918253,152.425526 88.1975002,150.19285 87.6777337,147.040081 C87.1002154,143.539864 89.4616235,140.219804 92.9588176,139.647158 C112.684276,136.365705 123.592954,124.35301 123.702041,124.230759 C126.044199,121.592728 130.106077,121.341793 132.743411,123.690285 C135.387161,126.038776 135.650253,130.079468 133.327346,132.736803 C132.769078,133.373791 119.492574,148.275452 95.057134,152.335447 C94.6977893,152.399789 94.3448615,152.425526 93.9983505,152.425526 L93.9983505,152.425526 Z M112.742027,183.676549 C110.014858,183.676549 107.486611,181.92644 106.620334,179.185461 C105.555133,175.801059 107.428859,172.178592 110.804133,171.110511 C128.084763,165.622118 135.701588,152.901659 135.77859,152.772974 C137.575314,149.70385 141.502438,148.674374 144.556868,150.475956 C147.617715,152.271105 148.637997,156.221718 146.847691,159.277974 C146.443428,159.97287 136.612783,176.412311 114.679922,183.367706 C114.031818,183.580035 113.377298,183.676549 112.742027,183.676549 L112.742027,183.676549 Z M83.1025055,115.023386 C79.919738,115.023386 77.1540671,112.649157 76.7433875,109.39344 C76.3006234,105.867486 78.7903689,102.650374 82.3068136,102.199979 C99.5617767,100.012343 112.190177,89.5181243 112.312097,89.4087425 C115.020016,87.1310274 119.069061,87.4591728 121.34705,90.1744151 C123.631456,92.8832231 123.304195,96.9303496 120.60911,99.2273673 C119.986673,99.7614079 105.080285,112.282406 83.917448,114.965478 C83.6415226,115.004083 83.372014,115.023386 83.1025055,115.023386 L83.1025055,115.023386 Z M71.4173855,84.3514429 C68.6902158,84.3514429 66.1619691,82.5949 65.2956916,79.8410524 C64.2369081,76.4502167 66.1106341,72.8406174 69.4923245,71.7725363 C89.5771272,65.4476947 96.783272,54.451607 97.0784481,53.9883429 C98.9714247,51.0157317 102.924216,50.0956378 105.901644,51.9808652 C108.885489,53.8596585 109.822352,57.765232 107.98071,60.7700143 C107.595698,61.394134 98.3169039,76.1864135 73.3360296,84.0554687 C72.7007594,84.2549296 72.0526556,84.3514429 71.4173855,84.3514429 L71.4173855,84.3514429 Z" id="Shape" fill="#744EAA"></path>
                </g>
                <rect id="Rectangle-Copy" fill="#D8D8D8" x="293" y="126" width="161" height="20" rx="5"></rect>
                <rect id="Rectangle-Copy-2" fill="#D8D8D8" x="293" y="86" width="161" height="20" rx="5"></rect>
            </g>
        </g>
    </g>
</svg>